<?xml version="1.0" encoding="UTF-8"?>
<svg id="Camada_2" data-name="Camada 2" xmlns="http://www.w3.org/2000/svg" viewBox="0 0 589.53 181.28">
  <defs>
    <style>
      .cls-1 {
        fill: #fff;
      }

      .cls-2 {
        fill: #3b6eff;
      }
    </style>
  </defs>
  <g id="elementos">
    <g>
      <path class="cls-1" d="M0,127.66v-39.24c0-5.69,1.25-10.69,3.77-15,2.51-4.31,5.99-7.69,10.43-10.16,4.45-2.46,9.55-3.69,15.31-3.69,5.19,0,9.96,1,14.32,3,4.36,2,7.9,4.77,10.62,8.31,2.8-3.54,6.36-6.31,10.68-8.31,4.32-2,9.03-3,14.14-3,5.76,0,10.82,1.23,15.19,3.69,4.36,2.46,7.78,5.85,10.25,10.16,2.47,4.31,3.7,9.31,3.7,15v39.24h-20.13v-39.24c0-3.54-1.07-6.42-3.21-8.66-2.14-2.23-5.02-3.35-8.64-3.35s-6.44,1.12-8.71,3.35c-2.26,2.23-3.4,5.12-3.4,8.66v39.24h-20.01v-39.24c0-3.54-1.13-6.42-3.4-8.66-2.27-2.23-5.21-3.35-8.83-3.35s-6.44,1.12-8.71,3.35c-2.27,2.23-3.4,5.12-3.4,8.66v39.24H0Z"/>
      <path class="cls-2" d="M122.87,54.72c-3.21,0-5.91-.88-8.09-2.65-2.18-1.77-3.27-4.08-3.27-6.92s1.09-5.04,3.27-6.81c2.18-1.77,4.88-2.65,8.09-2.65s5.78.89,7.96,2.65c2.18,1.77,3.27,4.04,3.27,6.81s-1.09,5.16-3.27,6.92c-2.18,1.77-4.84,2.65-7.96,2.65Z"/>
      <rect class="cls-1" x="112.87" y="61.88" width="20.01" height="65.78"/>
      <path class="cls-1" d="M158.19,127.66c-5.76,0-10.39-1.63-13.89-4.91-3.5-3.27-5.25-7.6-5.25-12.98V41.1h20.01v65.44c0,1.46.49,2.65,1.48,3.58.99.92,2.22,1.39,3.7,1.39h3.83v16.16h-9.88Z"/>
      <path class="cls-1" d="M222.15,129.39c-3.7,0-6.75-1.23-9.14-3.69-2.39-2.46-4.78-6.85-7.16-13.16l-19.51-50.66h20.62l15.19,43.62,14.82-43.62h20.13l-18.89,50.43c-2.39,6.39-4.75,10.83-7.1,13.33-2.35,2.5-5.33,3.75-8.95,3.75Z"/>
      <path class="cls-1" d="M285.99,129.39c-7.16,0-13.38-1.4-18.65-4.21-5.27-2.81-9.37-6.81-12.29-12-2.92-5.19-4.38-11.33-4.38-18.41s1.44-13.19,4.32-18.35c2.88-5.15,6.93-9.16,12.16-12,5.23-2.85,11.38-4.27,18.46-4.27s13.56,1.54,18.71,4.62c5.14,3.08,9.02,7.54,11.61,13.39,2.59,5.85,3.68,12.89,3.27,21.12h-48.41c.66,4.92,2.39,8.77,5.19,11.54,2.8,2.77,6.42,4.15,10.87,4.15,3.62,0,6.59-.83,8.89-2.48,2.3-1.65,3.75-3.67,4.32-6.06h18.65c-.82,4.77-2.74,8.87-5.74,12.29-3.01,3.42-6.81,6.06-11.42,7.91-4.61,1.85-9.8,2.77-15.56,2.77ZM285.75,74.46c-4.03,0-7.37,1.21-10,3.64-2.64,2.42-4.28,5.68-4.94,9.75h28.65c-.33-4.85-1.85-8.29-4.57-10.33-2.72-2.04-5.76-3.06-9.14-3.06Z"/>
      <path class="cls-1" d="M320.82,127.66v-38.66c0-5.92,1.3-11.04,3.89-15.35,2.59-4.31,6.28-7.64,11.05-9.98,4.77-2.35,10.41-3.52,16.92-3.52s12.14,1.17,16.92,3.52c4.77,2.35,8.46,5.68,11.05,9.98,2.59,4.31,3.89,9.43,3.89,15.35v38.66h-20.01v-38.43c0-4.16-1.09-7.35-3.27-9.58-2.18-2.23-5.04-3.35-8.58-3.35s-6.3,1.12-8.52,3.35c-2.22,2.23-3.33,5.42-3.33,9.58v38.43h-20.01Z"/>
      <path class="cls-1" d="M419.48,129.39c-6.5,0-12.25-1.48-17.23-4.44-4.98-2.96-8.89-7.08-11.73-12.35-2.84-5.27-4.26-11.33-4.26-18.18s1.32-12.62,3.95-17.77c2.63-5.15,6.3-9.19,10.99-12.12,4.69-2.92,10.04-4.39,16.05-4.39,4.2,0,8.05.69,11.55,2.08,3.5,1.38,6.4,3.46,8.71,6.23v-27.35h20.01v86.56h-16.92l-1.48-9c-4.28,7.16-10.83,10.73-19.63,10.73ZM422.45,113c4.61,0,8.27-1.69,10.99-5.08,2.72-3.38,4.08-7.96,4.08-13.73s-1.36-10.33-4.08-13.68c-2.72-3.35-6.38-5.02-10.99-5.02-4.86,0-8.71,1.67-11.55,5.02-2.84,3.35-4.26,7.91-4.26,13.68s1.42,10.35,4.26,13.73c2.84,3.39,6.69,5.08,11.55,5.08Z"/>
      <path class="cls-1" d="M491.73,129.39c-6.26,0-11.79-1.5-16.61-4.5-4.82-3-8.58-7.16-11.3-12.46-2.72-5.31-4.08-11.39-4.08-18.23s1.32-12.6,3.95-17.72c2.63-5.12,6.26-9.12,10.87-12,4.61-2.88,9.92-4.33,15.93-4.33,4.61,0,8.71.83,12.29,2.48,3.58,1.66,6.48,3.94,8.71,6.87l1.11-7.62h16.55v65.78h-16.55l-1.11-8.66c-2.14,3.23-4.94,5.77-8.4,7.62-3.46,1.85-7.25,2.77-11.36,2.77ZM495.31,113c4.61,0,8.27-1.69,10.99-5.08,2.72-3.38,4.08-7.96,4.08-13.73s-1.36-10.33-4.08-13.68c-2.72-3.35-6.38-5.02-10.99-5.02s-8.4,1.67-11.11,5.02c-2.72,3.35-4.08,7.91-4.08,13.68s1.36,10.35,4.08,13.73c2.72,3.39,6.42,5.08,11.11,5.08Z"/>
      <path class="cls-1" d="M560.75,129.39c-9.47,0-16.92-2.06-22.35-6.17-5.43-4.12-8.15-9.75-8.15-16.91h17.66c.66,3.31,2.1,5.73,4.32,7.27,2.22,1.54,4.98,2.31,8.27,2.31,2.88,0,5.27-.54,7.16-1.62,1.89-1.08,2.84-2.61,2.84-4.62,0-1.54-.72-2.69-2.16-3.46-1.44-.77-4.14-1.62-8.09-2.54-2.8-.61-5.25-1.17-7.35-1.67-2.1-.5-4.34-1.13-6.73-1.9-2.8-.92-5.37-2.04-7.72-3.35-2.35-1.31-4.24-3.1-5.68-5.37-1.44-2.27-2.16-5.25-2.16-8.94,0-4.16.86-7.65,2.59-10.5,1.73-2.85,4.03-5.14,6.92-6.87,2.88-1.73,6.03-2.98,9.45-3.75,3.42-.77,6.77-1.15,10.06-1.15,5.51,0,10.41.91,14.69,2.71,4.28,1.81,7.66,4.31,10.13,7.5,2.47,3.19,3.7,6.91,3.7,11.14h-18.77c0-2.31-1.09-4.23-3.27-5.77-2.18-1.54-4.75-2.31-7.72-2.31-2.06,0-4.12.46-6.17,1.39-2.06.92-3.09,2.42-3.09,4.5,0,1.39.66,2.56,1.98,3.52,1.32.96,3.87,1.94,7.66,2.94,1.4.31,3.07.69,5,1.15,1.93.46,3.85.91,5.74,1.33,1.89.42,3.46.83,4.69,1.21,5.35,1.46,9.24,3.69,11.67,6.69,2.43,3,3.64,6.77,3.64,11.31,0,6.92-2.53,12.31-7.59,16.16-5.06,3.85-12.12,5.77-21.18,5.77Z"/>
      <g>
        <path class="cls-1" d="M60.42,172.99c-2.34,0-4.35-.48-6.04-1.43-1.69-.95-3-2.3-3.92-4.05-.92-1.75-1.38-3.83-1.38-6.23s.45-4.48,1.37-6.23c.91-1.75,2.21-3.1,3.89-4.05,1.68-.95,3.66-1.43,5.93-1.43,2.04,0,3.81.36,5.32,1.08,1.51.72,2.69,1.72,3.55,3s1.31,2.75,1.35,4.41h-5.66c-.17-1.12-.65-2.04-1.43-2.76-.78-.72-1.8-1.08-3.07-1.08-1.69,0-3.03.64-4,1.92-.98,1.28-1.46,3-1.46,5.17s.49,3.83,1.46,5.14c.97,1.3,2.36,1.95,4.16,1.95,1.03,0,1.86-.2,2.49-.6.63-.4,1.11-.92,1.43-1.58.32-.65.52-1.35.61-2.09h5.62c-.09,1.86-.56,3.45-1.43,4.77s-2.05,2.33-3.53,3.03c-1.49.7-3.24,1.05-5.25,1.05Z"/>
        <path class="cls-1" d="M79.99,172.99c-1.82,0-3.44-.38-4.85-1.14-1.41-.76-2.52-1.82-3.33-3.17-.8-1.35-1.2-2.9-1.2-4.64s.4-3.35,1.2-4.71c.8-1.36,1.91-2.43,3.33-3.2,1.41-.77,3.03-1.16,4.85-1.16s3.46.39,4.87,1.16,2.51,1.84,3.31,3.2c.8,1.36,1.2,2.93,1.2,4.71s-.4,3.29-1.2,4.64c-.8,1.35-1.91,2.41-3.31,3.17-1.4.76-3.03,1.14-4.87,1.14ZM79.99,168.79c1.2,0,2.18-.44,2.94-1.32.76-.88,1.14-2.02,1.14-3.42s-.38-2.61-1.14-3.51c-.76-.9-1.74-1.35-2.94-1.35s-2.18.45-2.94,1.35c-.76.9-1.14,2.07-1.14,3.51s.38,2.54,1.14,3.42c.76.88,1.74,1.32,2.94,1.32Z"/>
        <path class="cls-1" d="M89.82,172.54v-10.06c0-1.54.34-2.87,1.01-3.99.68-1.12,1.63-1.99,2.88-2.6,1.24-.61,2.71-.92,4.4-.92s3.16.31,4.4.92,2.2,1.48,2.88,2.6c.68,1.12,1.01,2.45,1.01,3.99v10.06h-5.21v-10c0-1.08-.28-1.91-.85-2.49-.57-.58-1.31-.87-2.23-.87s-1.64.29-2.22.87c-.58.58-.87,1.41-.87,2.49v10h-5.21Z"/>
        <path class="cls-1" d="M114.44,172.99c-2.46,0-4.4-.54-5.82-1.61-1.41-1.07-2.12-2.54-2.12-4.4h4.6c.17.86.55,1.49,1.12,1.89.58.4,1.3.6,2.15.6.75,0,1.37-.14,1.86-.42.49-.28.74-.68.74-1.2,0-.4-.19-.7-.56-.9-.38-.2-1.08-.42-2.1-.66-.73-.16-1.37-.31-1.91-.44-.55-.13-1.13-.29-1.75-.49-.73-.24-1.4-.53-2.01-.87-.61-.34-1.1-.81-1.48-1.4-.38-.59-.56-1.37-.56-2.33,0-1.08.23-1.99.68-2.73.45-.74,1.05-1.34,1.8-1.79.75-.45,1.57-.78,2.46-.98.89-.2,1.76-.3,2.62-.3,1.44,0,2.71.24,3.82.71,1.11.47,1.99,1.12,2.63,1.95.64.83.96,1.8.96,2.9h-4.88c0-.6-.28-1.1-.85-1.5-.57-.4-1.24-.6-2.01-.6-.54,0-1.07.12-1.61.36-.54.24-.8.63-.8,1.17,0,.36.17.67.51.92.34.25,1.01.51,1.99.76.36.08.8.18,1.3.3.5.12,1,.24,1.49.35.49.11.9.22,1.22.32,1.39.38,2.4.96,3.04,1.74.63.78.95,1.76.95,2.94,0,1.8-.66,3.2-1.98,4.2-1.32,1-3.15,1.5-5.51,1.5Z"/>
        <path class="cls-1" d="M130.53,172.99c-1.61,0-3.04-.32-4.29-.96-1.25-.64-2.23-1.53-2.94-2.66-.71-1.13-1.06-2.43-1.06-3.89v-10.06h5.21v10.24c0,.92.29,1.67.87,2.25s1.32.87,2.22.87,1.64-.29,2.22-.87c.58-.58.87-1.33.87-2.25v-10.24h5.21v10.06c0,1.46-.35,2.76-1.06,3.89-.71,1.13-1.68,2.02-2.92,2.66-1.24.64-2.68.96-4.31.96Z"/>
        <path class="cls-1" d="M144.9,172.54c-1.5,0-2.7-.43-3.61-1.28-.91-.85-1.37-1.98-1.37-3.38v-17.87h5.21v17.03c0,.38.13.69.39.93s.58.36.96.36h1v4.2h-2.57Z"/>
        <path class="cls-1" d="M154.28,172.54c-1.5,0-2.7-.43-3.62-1.28-.91-.85-1.37-1.98-1.37-3.38v-8.56h-3.02v-3.9h3.02v-4.51h5.21v4.51h3.73v3.9h-3.73v7.72c0,.38.13.69.39.93s.58.36.96.36h2.92v4.2h-4.5Z"/>
        <path class="cls-1" d="M167.39,172.99c-1.82,0-3.44-.38-4.85-1.14-1.41-.76-2.52-1.82-3.33-3.17-.8-1.35-1.2-2.9-1.2-4.64s.4-3.35,1.2-4.71c.8-1.36,1.91-2.43,3.33-3.2,1.41-.77,3.03-1.16,4.85-1.16s3.46.39,4.87,1.16,2.51,1.84,3.31,3.2c.8,1.36,1.2,2.93,1.2,4.71s-.4,3.29-1.2,4.64c-.8,1.35-1.91,2.41-3.31,3.17-1.4.76-3.03,1.14-4.87,1.14ZM167.39,168.79c1.2,0,2.18-.44,2.94-1.32.76-.88,1.14-2.02,1.14-3.42s-.38-2.61-1.14-3.51c-.76-.9-1.74-1.35-2.94-1.35s-2.18.45-2.94,1.35c-.76.9-1.14,2.07-1.14,3.51s.38,2.54,1.14,3.42c.76.88,1.74,1.32,2.94,1.32Z"/>
        <path class="cls-1" d="M177.22,172.54v-9.91c0-2.46.71-4.35,2.14-5.68,1.42-1.32,3.46-1.98,6.12-1.98.28,0,.72.02,1.32.04.6.03,1.2.11,1.8.23v4.17c-.41-.06-.79-.12-1.16-.16-.36-.05-.77-.08-1.22-.08-.66,0-1.29.09-1.86.27-.58.18-1.04.52-1.4,1.02-.35.5-.53,1.23-.53,2.19v9.88h-5.21Z"/>
        <path class="cls-1" d="M191.36,153.56c-.84,0-1.54-.23-2.1-.69-.57-.46-.85-1.06-.85-1.8s.28-1.31.85-1.77c.57-.46,1.27-.69,2.1-.69s1.5.23,2.07.69c.57.46.85,1.05.85,1.77s-.28,1.34-.85,1.8c-.57.46-1.26.69-2.07.69ZM188.76,172.54v-17.12h5.21v17.12h-5.21Z"/>
        <path class="cls-1" d="M202.9,172.99c-1.63,0-3.07-.39-4.32-1.17-1.25-.78-2.23-1.86-2.94-3.24-.71-1.38-1.06-2.96-1.06-4.75s.34-3.28,1.03-4.61c.69-1.33,1.63-2.37,2.83-3.12,1.2-.75,2.58-1.13,4.15-1.13,1.2,0,2.27.22,3.2.65.93.43,1.69,1.03,2.27,1.79l.29-1.98h4.31v17.12h-4.31l-.29-2.25c-.56.84-1.29,1.5-2.18,1.98-.9.48-1.89.72-2.96.72ZM203.83,168.73c1.2,0,2.15-.44,2.86-1.32.71-.88,1.06-2.07,1.06-3.57s-.35-2.69-1.06-3.56c-.71-.87-1.66-1.31-2.86-1.31s-2.18.44-2.89,1.31c-.71.87-1.06,2.06-1.06,3.56s.35,2.69,1.06,3.57c.71.88,1.67,1.32,2.89,1.32Z"/>
        <path class="cls-1" d="M227.51,172.99c-1.86,0-3.48-.37-4.85-1.1-1.37-.73-2.44-1.77-3.2-3.12-.76-1.35-1.14-2.95-1.14-4.79s.37-3.43,1.12-4.77c.75-1.34,1.8-2.38,3.17-3.12,1.36-.74,2.96-1.11,4.8-1.11s3.53.4,4.87,1.2c1.34.8,2.35,1.96,3.02,3.48.67,1.52.96,3.35.85,5.5h-12.6c.17,1.28.62,2.28,1.35,3,.73.72,1.67,1.08,2.83,1.08.94,0,1.71-.22,2.31-.65.6-.43.97-.96,1.12-1.58h4.85c-.21,1.24-.71,2.31-1.49,3.2s-1.77,1.58-2.97,2.06c-1.2.48-2.55.72-4.05.72ZM227.45,158.7c-1.05,0-1.92.32-2.6.95-.69.63-1.11,1.48-1.29,2.54h7.46c-.09-1.26-.48-2.16-1.19-2.69-.71-.53-1.5-.8-2.38-.8Z"/>
        <path class="cls-1" d="M236.57,172.54v-10.21c0-1.48.33-2.78.98-3.9.65-1.12,1.56-2,2.72-2.64,1.16-.64,2.48-.96,3.98-.96,1.35,0,2.59.26,3.73.78,1.14.52,2.06,1.24,2.76,2.16.73-.92,1.66-1.64,2.78-2.16,1.12-.52,2.35-.78,3.68-.78,1.5,0,2.82.32,3.95.96,1.14.64,2.02,1.52,2.67,2.64.64,1.12.96,2.42.96,3.9v10.21h-5.24v-10.21c0-.92-.28-1.67-.84-2.25-.56-.58-1.31-.87-2.25-.87s-1.68.29-2.27.87c-.59.58-.88,1.33-.88,2.25v10.21h-5.21v-10.21c0-.92-.29-1.67-.88-2.25s-1.36-.87-2.3-.87-1.68.29-2.27.87-.88,1.33-.88,2.25v10.21h-5.21Z"/>
        <path class="cls-1" d="M276.71,172.54v-17.84h-6.81v-4.68h19.28v4.68h-6.81v17.84h-5.66Z"/>
        <path class="cls-1" d="M294.8,172.99c-1.86,0-3.48-.37-4.85-1.1-1.37-.73-2.44-1.77-3.2-3.12-.76-1.35-1.14-2.95-1.14-4.79s.37-3.43,1.12-4.77c.75-1.34,1.8-2.38,3.17-3.12,1.36-.74,2.96-1.11,4.8-1.11s3.53.4,4.87,1.2c1.34.8,2.35,1.96,3.02,3.48.67,1.52.96,3.35.85,5.5h-12.6c.17,1.28.62,2.28,1.35,3,.73.72,1.67,1.08,2.83,1.08.94,0,1.71-.22,2.31-.65.6-.43.97-.96,1.12-1.58h4.85c-.21,1.24-.71,2.31-1.49,3.2s-1.77,1.58-2.97,2.06c-1.2.48-2.55.72-4.05.72ZM294.73,158.7c-1.05,0-1.92.32-2.6.95-.69.63-1.11,1.48-1.29,2.54h7.46c-.09-1.26-.48-2.16-1.19-2.69-.71-.53-1.5-.8-2.38-.8Z"/>
        <path class="cls-1" d="M308.87,172.54c-1.5,0-2.7-.43-3.61-1.28-.91-.85-1.37-1.98-1.37-3.38v-17.87h5.21v17.03c0,.38.13.69.39.93s.58.36.96.36h1v4.2h-2.57Z"/>
        <path class="cls-1" d="M320.5,172.99c-1.86,0-3.48-.37-4.85-1.1-1.37-.73-2.44-1.77-3.2-3.12-.76-1.35-1.14-2.95-1.14-4.79s.37-3.43,1.12-4.77c.75-1.34,1.8-2.38,3.17-3.12,1.36-.74,2.96-1.11,4.8-1.11s3.53.4,4.87,1.2c1.34.8,2.35,1.96,3.02,3.48.67,1.52.96,3.35.85,5.5h-12.6c.17,1.28.62,2.28,1.35,3,.73.72,1.67,1.08,2.83,1.08.94,0,1.71-.22,2.31-.65.6-.43.97-.96,1.12-1.58h4.85c-.21,1.24-.71,2.31-1.49,3.2s-1.77,1.58-2.97,2.06c-1.2.48-2.55.72-4.05.72ZM320.44,158.7c-1.05,0-1.92.32-2.6.95-.69.63-1.11,1.48-1.29,2.54h7.46c-.09-1.26-.48-2.16-1.19-2.69-.71-.53-1.5-.8-2.38-.8Z"/>
        <path class="cls-1" d="M337.73,172.99c-1.78,0-3.33-.38-4.66-1.14-1.33-.76-2.36-1.82-3.08-3.17-.73-1.35-1.09-2.9-1.09-4.64s.36-3.32,1.09-4.68c.73-1.36,1.77-2.43,3.12-3.21,1.35-.78,2.97-1.17,4.85-1.17,1.59,0,2.96.28,4.13.84,1.17.56,2.08,1.36,2.73,2.4.65,1.04.98,2.28.98,3.72h-4.98c0-.82-.27-1.49-.8-2-.54-.51-1.24-.77-2.12-.77-1.11,0-2.01.44-2.68,1.31-.67.87-1.01,2.05-1.01,3.53s.33,2.62,1,3.48c.66.86,1.56,1.29,2.7,1.29.9,0,1.66-.26,2.27-.77.61-.51.92-1.14.92-1.88h4.98c0,.78-.18,1.58-.55,2.39s-.9,1.55-1.61,2.22-1.58,1.21-2.62,1.62c-1.04.41-2.22.62-3.55.62Z"/>
        <path class="cls-1" d="M354.79,172.99c-1.82,0-3.44-.38-4.85-1.14-1.41-.76-2.52-1.82-3.33-3.17-.8-1.35-1.2-2.9-1.2-4.64s.4-3.35,1.2-4.71c.8-1.36,1.91-2.43,3.33-3.2,1.41-.77,3.03-1.16,4.85-1.16s3.46.39,4.87,1.16,2.51,1.84,3.31,3.2c.8,1.36,1.2,2.93,1.2,4.71s-.4,3.29-1.2,4.64c-.8,1.35-1.91,2.41-3.31,3.17-1.4.76-3.03,1.14-4.87,1.14ZM354.79,168.79c1.2,0,2.18-.44,2.94-1.32.76-.88,1.14-2.02,1.14-3.42s-.38-2.61-1.14-3.51c-.76-.9-1.74-1.35-2.94-1.35s-2.18.45-2.94,1.35c-.76.9-1.14,2.07-1.14,3.51s.38,2.54,1.14,3.42c.76.88,1.74,1.32,2.94,1.32Z"/>
        <path class="cls-1" d="M364.62,172.54v-10.21c0-1.48.33-2.78.98-3.9.65-1.12,1.56-2,2.72-2.64,1.16-.64,2.48-.96,3.98-.96,1.35,0,2.59.26,3.73.78,1.14.52,2.06,1.24,2.76,2.16.73-.92,1.66-1.64,2.78-2.16,1.12-.52,2.35-.78,3.68-.78,1.5,0,2.82.32,3.95.96,1.14.64,2.02,1.52,2.67,2.64.64,1.12.96,2.42.96,3.9v10.21h-5.24v-10.21c0-.92-.28-1.67-.84-2.25-.56-.58-1.31-.87-2.25-.87s-1.68.29-2.27.87c-.59.58-.88,1.33-.88,2.25v10.21h-5.21v-10.21c0-.92-.29-1.67-.88-2.25s-1.36-.87-2.3-.87-1.68.29-2.27.87-.88,1.33-.88,2.25v10.21h-5.21Z"/>
        <path class="cls-1" d="M401.9,172.99c-1.61,0-3.04-.32-4.29-.96-1.25-.64-2.23-1.53-2.94-2.66-.71-1.13-1.06-2.43-1.06-3.89v-10.06h5.21v10.24c0,.92.29,1.67.87,2.25s1.32.87,2.22.87,1.64-.29,2.22-.87c.58-.58.87-1.33.87-2.25v-10.24h5.21v10.06c0,1.46-.35,2.76-1.06,3.89-.71,1.13-1.68,2.02-2.92,2.66-1.24.64-2.68.96-4.31.96Z"/>
        <path class="cls-1" d="M410.96,172.54v-10.06c0-1.54.34-2.87,1.01-3.99.68-1.12,1.63-1.99,2.88-2.6,1.24-.61,2.71-.92,4.4-.92s3.16.31,4.4.92,2.2,1.48,2.88,2.6c.68,1.12,1.01,2.45,1.01,3.99v10.06h-5.21v-10c0-1.08-.28-1.91-.85-2.49-.57-.58-1.31-.87-2.23-.87s-1.64.29-2.22.87c-.58.58-.87,1.41-.87,2.49v10h-5.21Z"/>
        <path class="cls-1" d="M431.3,153.56c-.84,0-1.54-.23-2.1-.69-.57-.46-.85-1.06-.85-1.8s.28-1.31.85-1.77c.57-.46,1.27-.69,2.1-.69s1.5.23,2.07.69c.57.46.85,1.05.85,1.77s-.28,1.34-.85,1.8c-.57.46-1.26.69-2.07.69ZM428.69,172.54v-17.12h5.21v17.12h-5.21Z"/>
        <path class="cls-1" d="M443.25,172.99c-1.78,0-3.33-.38-4.66-1.14-1.33-.76-2.36-1.82-3.08-3.17s-1.09-2.9-1.09-4.64.36-3.32,1.09-4.68c.73-1.36,1.77-2.43,3.12-3.21,1.35-.78,2.97-1.17,4.85-1.17,1.59,0,2.96.28,4.13.84,1.17.56,2.08,1.36,2.73,2.4.65,1.04.98,2.28.98,3.72h-4.98c0-.82-.27-1.49-.8-2-.54-.51-1.24-.77-2.12-.77-1.11,0-2.01.44-2.68,1.31-.67.87-1.01,2.05-1.01,3.53s.33,2.62,1,3.48c.66.86,1.56,1.29,2.7,1.29.9,0,1.66-.26,2.27-.77.61-.51.92-1.14.92-1.88h4.98c0,.78-.18,1.58-.55,2.39s-.9,1.55-1.61,2.22-1.58,1.21-2.62,1.62c-1.04.41-2.22.62-3.55.62Z"/>
        <path class="cls-1" d="M459.25,172.99c-1.63,0-3.07-.39-4.32-1.17-1.25-.78-2.23-1.86-2.94-3.24-.71-1.38-1.06-2.96-1.06-4.75s.34-3.28,1.03-4.61c.69-1.33,1.63-2.37,2.83-3.12,1.2-.75,2.58-1.13,4.15-1.13,1.2,0,2.27.22,3.2.65.93.43,1.69,1.03,2.27,1.79l.29-1.98h4.31v17.12h-4.31l-.29-2.25c-.56.84-1.29,1.5-2.18,1.98-.9.48-1.89.72-2.96.72ZM460.18,168.73c1.2,0,2.15-.44,2.86-1.32.71-.88,1.06-2.07,1.06-3.57s-.35-2.69-1.06-3.56c-.71-.87-1.66-1.31-2.86-1.31s-2.18.44-2.89,1.31c-.71.87-1.06,2.06-1.06,3.56s.35,2.69,1.06,3.57c.71.88,1.67,1.32,2.89,1.32Z"/>
        <path class="cls-1" d="M478.34,172.99c-1.78,0-3.33-.38-4.66-1.14-1.33-.76-2.36-1.82-3.08-3.17s-1.09-2.9-1.09-4.64.36-3.32,1.09-4.68c.73-1.36,1.77-2.43,3.12-3.21,1.35-.78,2.97-1.17,4.85-1.17,1.59,0,2.96.28,4.13.84,1.17.56,2.08,1.36,2.73,2.4.65,1.04.98,2.28.98,3.72h-4.98c0-.82-.27-1.49-.8-2-.54-.51-1.24-.77-2.12-.77-1.11,0-2.01.44-2.68,1.31-.67.87-1.01,2.05-1.01,3.53s.33,2.62,1,3.48c.66.86,1.56,1.29,2.7,1.29.9,0,1.66-.26,2.27-.77.61-.51.92-1.14.92-1.88h4.98c0,.78-.18,1.58-.55,2.39s-.9,1.55-1.61,2.22-1.58,1.21-2.62,1.62c-1.04.41-2.22.62-3.55.62ZM474.9,181.28v-3.18h2.22c.24,0,.43-.06.59-.18s.24-.28.24-.48c0-.4-.28-.6-.84-.6h-.16c-.49,0-.92-.14-1.27-.42s-.53-.64-.53-1.08c0-.34.12-.75.35-1.23l.84-1.56h3.76l-.93,1.86c.77.14,1.43.47,1.99.98.56.51.84,1.25.84,2.21,0,1.22-.41,2.14-1.22,2.76-.81.62-1.89.93-3.21.93h-2.67Z"/>
        <path class="cls-1" d="M495.4,172.99c-1.82,0-3.44-.38-4.85-1.14-1.41-.76-2.52-1.82-3.33-3.17-.8-1.35-1.2-2.9-1.2-4.64s.4-3.35,1.2-4.71c.8-1.36,1.91-2.43,3.33-3.2,1.41-.77,3.03-1.16,4.85-1.16s3.46.39,4.87,1.16,2.51,1.84,3.31,3.2c.8,1.36,1.2,2.93,1.2,4.71s-.4,3.29-1.2,4.64c-.8,1.35-1.91,2.41-3.31,3.17-1.4.76-3.03,1.14-4.87,1.14ZM497.52,153.77c-.69,0-1.25-.14-1.69-.42-.44-.28-.81-.56-1.11-.84-.3-.28-.61-.42-.93-.42-.15,0-.28.05-.4.15-.12.1-.18.33-.18.69v.69h-3.37v-1.2c0-1.28.33-2.18,1-2.7.66-.52,1.49-.78,2.47-.78.73,0,1.3.14,1.72.41s.77.54,1.06.81c.29.27.58.4.88.4.17,0,.31-.05.42-.16.11-.11.16-.32.16-.62v-.6h3.41v1.11c0,1.2-.33,2.08-1,2.64-.66.56-1.48.84-2.44.84ZM495.4,168.79c1.2,0,2.18-.44,2.94-1.32.76-.88,1.14-2.02,1.14-3.42s-.38-2.61-1.14-3.51c-.76-.9-1.74-1.35-2.94-1.35s-2.18.45-2.94,1.35c-.76.9-1.14,2.07-1.14,3.51s.38,2.54,1.14,3.42c.76.88,1.74,1.32,2.94,1.32Z"/>
        <path class="cls-1" d="M514.01,172.99c-1.86,0-3.48-.37-4.85-1.1-1.37-.73-2.44-1.77-3.2-3.12-.76-1.35-1.14-2.95-1.14-4.79s.37-3.43,1.12-4.77c.75-1.34,1.8-2.38,3.17-3.12,1.36-.74,2.96-1.11,4.8-1.11s3.53.4,4.87,1.2c1.34.8,2.35,1.96,3.02,3.48.67,1.52.96,3.35.85,5.5h-12.6c.17,1.28.62,2.28,1.35,3,.73.72,1.67,1.08,2.83,1.08.94,0,1.71-.22,2.31-.65.6-.43.97-.96,1.12-1.58h4.85c-.21,1.24-.71,2.31-1.49,3.2s-1.77,1.58-2.97,2.06c-1.2.48-2.55.72-4.05.72ZM513.94,158.7c-1.05,0-1.92.32-2.6.95-.69.63-1.11,1.48-1.29,2.54h7.46c-.09-1.26-.48-2.16-1.19-2.69-.71-.53-1.5-.8-2.38-.8Z"/>
        <path class="cls-1" d="M530.3,172.99c-2.46,0-4.4-.54-5.82-1.61-1.41-1.07-2.12-2.54-2.12-4.4h4.6c.17.86.55,1.49,1.12,1.89.58.4,1.3.6,2.15.6.75,0,1.37-.14,1.86-.42.49-.28.74-.68.74-1.2,0-.4-.19-.7-.56-.9-.38-.2-1.08-.42-2.1-.66-.73-.16-1.37-.31-1.91-.44-.55-.13-1.13-.29-1.75-.49-.73-.24-1.4-.53-2.01-.87-.61-.34-1.1-.81-1.48-1.4-.38-.59-.56-1.37-.56-2.33,0-1.08.23-1.99.68-2.73.45-.74,1.05-1.34,1.8-1.79.75-.45,1.57-.78,2.46-.98.89-.2,1.76-.3,2.62-.3,1.44,0,2.71.24,3.82.71,1.11.47,1.99,1.12,2.63,1.95.64.83.96,1.8.96,2.9h-4.88c0-.6-.28-1.1-.85-1.5-.57-.4-1.24-.6-2.01-.6-.54,0-1.07.12-1.61.36-.54.24-.8.63-.8,1.17,0,.36.17.67.51.92.34.25,1.01.51,1.99.76.36.08.8.18,1.3.3.5.12,1,.24,1.49.35.49.11.9.22,1.22.32,1.39.38,2.4.96,3.04,1.74.63.78.95,1.76.95,2.94,0,1.8-.66,3.2-1.98,4.2-1.32,1-3.15,1.5-5.51,1.5Z"/>
      </g>
      <g>
        <path class="cls-2" d="M321.25,66.35c-1.82,0-3.56-1-4.44-2.73-4.4-8.73-21.28-16.55-35.64-13.15-2.67.63-5.34-1.02-5.98-3.69-.63-2.67,1.02-5.34,3.69-5.98,17.57-4.16,39.86,4.58,46.79,18.34,1.23,2.45.25,5.43-2.2,6.67-.72.36-1.48.53-2.23.53Z"/>
        <path class="cls-2" d="M335.69,53.39c-1.82,0-3.56-1-4.44-2.73-6.78-13.45-31.56-25.08-53.36-19.92-2.67.63-5.34-1.02-5.98-3.69-.63-2.67,1.02-5.34,3.69-5.98,24.26-5.74,55.01,6.23,64.52,25.11,1.23,2.45.25,5.43-2.2,6.67-.72.36-1.48.53-2.23.53Z"/>
        <path class="cls-2" d="M357.06,44.61c-1.82,0-3.56-1-4.44-2.73-10.23-20.3-47.47-37.89-80.16-30.15-2.67.63-5.34-1.02-5.98-3.69-.63-2.67,1.02-5.34,3.69-5.98,34.37-8.14,77.9,8.71,91.32,35.35,1.23,2.45.25,5.43-2.2,6.67-.72.36-1.48.53-2.23.53Z"/>
      </g>
    </g>
  </g>
</svg>